<svg width="16" height="15" fill="none" xmlns="http://www.w3.org/2000/svg"><path d="M5.024 0c.504.015.992.102 1.465.26h.047a.28.28 0 01.072.047c.177.056.344.12.504.206l.304.135c.12.063.264.18.344.229.08.046.168.094.24.149A5.055 5.055 0 0111.08 0c.505 0 1.009.07 1.488.23 2.953.947 4.017 4.144 3.128 6.939a10.029 10.029 0 01-2.407 3.796 30.71 30.71 0 01-5.065 3.916l-.2.119-.208-.127a30.422 30.422 0 01-5.095-3.916A10.192 10.192 0 01.312 7.17C-.592 4.374.472 1.177 3.457.213c.232-.08.471-.135.711-.165h.096A4.7 4.7 0 014.936 0h.088zm7.128 2.495a.643.643 0 00-.808.395.644.644 0 00.4.812c.513.19.856.688.856 1.24v.024c-.015.18.04.355.152.49.112.134.28.212.456.228a.654.654 0 00.632-.6V4.99a2.606 2.606 0 00-1.688-2.495z" fill="#F55"/></svg>